# xmcd CD database file
#
# Track frame offsets:
#	150
#	17499
#	34014
#	49216
#	67625
#	78769
#	94020
#	105331
#	122831
#
# Disc length: 1985 seconds
#
# Revision: 1
# Processed by: cddbd v1.5PL3 Copyright (c) Steve Scherf et al.
# Submitted via: CDex 1.51
#
DISCID=5c07bf09
DTITLE=S . E . N . S - Terra Firma
DYEAR=1998
DGENRE=New Age
TTITLE0=Opura-Uplai-Lai
TTITLE1=Caravan
TTITLE2=Truth #2
TTITLE3=Golden Wheat Farm
TTITLE4=Opura-Uplai-Lai - piano
TTITLE5=Truth
TTITLE6=Terra Firma - piano
TTITLE7=Opura-Uplai-Lai #2
TTITLE8=Terra Firma
EXTD=YEAR: 1998
EXTT0=
EXTT1=
EXTT2=
EXTT3=
EXTT4=
EXTT5=
EXTT6=
EXTT7=
EXTT8=
PLAYORDER=
